<svg xmlns="http://www.w3.org/2000/svg" xmlns:xlink="http://www.w3.org/1999/xlink" width="154" height="154" viewBox="0 0 154 154">
  <defs>
    <filter id="Ellipse_45" x="0" y="0" width="154" height="154" filterUnits="userSpaceOnUse">
      <feOffset dx="3" dy="3" input="SourceAlpha"/>
      <feGaussianBlur stdDeviation="7.5" result="blur"/>
      <feFlood flood-opacity="0.161"/>
      <feComposite operator="in" in2="blur"/>
      <feComposite in="SourceGraphic"/>
    </filter>
  </defs>
  <g id="Group_12042" data-name="Group 12042" transform="translate(-446.5 -7142.5)">
    <g transform="matrix(1, 0, 0, 1, 446.5, 7142.5)" filter="url(#Ellipse_45)">
      <circle id="Ellipse_45-2" data-name="Ellipse 45" cx="54.5" cy="54.5" r="54.5" transform="translate(19.5 19.5)" fill="#fff"/>
    </g>
    <path id="clock_3_" data-name="clock (3)" d="M24.748,0A24.748,24.748,0,1,0,49.5,24.748,24.775,24.775,0,0,0,24.748,0Zm11.77,37.549a2.06,2.06,0,0,1-2.916,0L23.29,27.237a2.053,2.053,0,0,1-.6-1.458V12.374a2.062,2.062,0,0,1,4.124,0V24.926l9.708,9.707a2.06,2.06,0,0,1,0,2.916Zm0,0" transform="translate(496 7192)" fill="#04f"/>
  </g>
</svg>
